<svg fill="none" viewBox="0 0 24 24" xmlns="http://www.w3.org/2000/svg"><path clip-rule="evenodd" d="m12 2c-5.52285 0-10 4.47715-10 10 0 5.5228 4.47715 10 10 10 5.5228 0 10-4.4772 10-10 0-5.52285-4.4772-10-10-10zm3.5805 7.97493c.2623-.32059.215-.7931-.1056-1.0554-.3206-.26229-.7931-.21504-1.0554.10554l-3.9752 4.85863-1.41397-1.414c-.29289-.2929-.76777-.2929-1.06066 0s-.29289.7677 0 1.0606l2 2c.14983.1499.35603.2293.56773.2188.2116-.0106.4089-.1102.5431-.2742z" fill="currentColor" fill-rule="evenodd"/></svg>