<svg fill="none" viewBox="0 0 24 24" xmlns="http://www.w3.org/2000/svg"><path clip-rule="evenodd" d="m2 12c0-5.52285 4.47715-10 10-10 5.5228 0 10 4.47715 10 10 0 5.5228-4.4772 10-10 10-5.52285 0-10-4.4772-10-10zm7.53033-3.53033c-.29289-.29289-.76777-.29289-1.06066 0s-.29289.76777 0 1.06066l2.46963 2.46967-2.46963 2.4697c-.29289.2929-.29289.7677 0 1.0606s.76777.2929 1.06066 0l2.46967-2.4696 2.4697 2.4696c.2929.2929.7677.2929 1.0606 0s.2929-.7677 0-1.0606l-2.4696-2.4697 2.4696-2.46967c.2929-.29289.2929-.76777 0-1.06066s-.7677-.29289-1.0606 0l-2.4697 2.46963z" fill="hsl(31, 67%, 53%)" fill-rule="evenodd"/></svg>