<svg fill="none" viewBox="0 0 24 24" xmlns="http://www.w3.org/2000/svg"><g stroke="currentColor" stroke-linecap="round" stroke-linejoin="round" stroke-width="1.5"><path d="m21.0646 8.34668c-.7082-2.63111-2.7802-4.70313-5.4113-5.4113-.2731-.0735-.4096-.11025-.5449-.07028-.1106.03267-.2243.11982-.2846.21813-.0738.12029-.0738.27663-.0738.58933v4.77742c0 .28003 0 .42004.0545.527.0479.09408.1244.17057.2185.21851.107.05449.247.05449.527.05449h4.7774c.3127 0 .4691 0 .5894-.07377.0983-.06028.1854-.174.2181-.2846.0399-.13532.0032-.27186-.0703-.54493z"/><path d="m19.25 13c0 4.5563-3.6937 8.25-8.25 8.25-4.55635 0-8.25-3.6937-8.25-8.25 0-4.55637 3.69365-8.25002 8.25-8.25002.085 0 .1697.00129.2541.00384v5.59638c0 .8401 0 1.2601.1635 1.581.1438.2822.3733.5117.6556.6555.3208.1635.7409.1635 1.5809.1635h5.5922c.0025.083.0037.1662.0037.2498z"/></g></svg>