<svg fill="none" viewBox="0 0 24 24" xmlns="http://www.w3.org/2000/svg"><g fill="currentColor"><path clip-rule="evenodd" d="m12.0888 4.58907c-.0579-.0224-.1222-.0224-.1802 0l-8.22526 3.17795c-.2132.08238-.2132.38403 0 .4664l8.22526 3.17798c.058.0224.1223.0224.1802 0l8.2253-3.17798c.2132-.08237.2132-.38402 0-.4664zm-.7208-1.3992c.4059-.15681.8556-.15681 1.2614 0l8.2253 3.17796c1.4924.5766 1.4924 2.68818 0 3.26479l-8.2253 3.17798c-.4058.1568-.8555.1568-1.2614 0l-8.22526-3.17798c-1.4924-.57661-1.4924-2.68818 0-3.26479z" fill-rule="evenodd"/><path d="m20.8547 13.6326-8.2253 3.178c-.4058.1568-.8555.1568-1.2614 0l-8.22526-3.178c-.88936-.3436-1.24873-1.2323-1.0781-2.0165l9.80176 3.7871c.0375.0144.0767.0226.1162.0245.009.0005.0181.0006.0271.0002.042-.0011.0839-.0093.1238-.0247l9.7995-3.7862c.1702.7839-.1892 1.6721-1.0783 2.0156z"/><path d="m20.8554 17.6326-8.2253 3.1779c-.4058.1568-.8555.1568-1.2614 0l-8.22527-3.1779c-.88936-.3437-1.24873-1.2324-1.0781-2.0165l9.80177 3.787c.0375.0145.0767.0227.1162.0245.009.0006.0181.0007.0271.0003.042-.0011.0839-.0094.1238-.0248l9.7995-3.7862c.1702.784-.1892 1.6722-1.0783 2.0157z"/></g></svg>