<svg fill="none" viewBox="0 0 24 24" xmlns="http://www.w3.org/2000/svg"><path d="m17.7512 19.25h1.519c1.7443 0 3.1946-1.5311 2.5063-3.1339-.868-2.0214-2.4731-3.3661-4.7753-3.3661-.4461 0-.866.0505-1.2594.1466m-4.4907-5.8966c0 1.79493-1.4551 3.25-3.25003 3.25-1.79492 0-3.25-1.45507-3.25-3.25s1.45508-3.25 3.25-3.25c1.79493 0 3.25003 1.45507 3.25003 3.25zm8.5.5c0 1.51878-1.2312 2.75-2.75 2.75s-2.75-1.23122-2.75-2.75 1.2312-2.75 2.75-2.75 2.75 1.23122 2.75 2.75zm-17.35759 9.5967c.93459-2.5877 2.82195-4.3467 5.60756-4.3467 2.78563 0 4.67293 1.759 5.60753 4.3467.5921 1.6393-.8419 3.1533-2.5849 3.1533h-6.04526c-1.74303 0-3.17702-1.514-2.58493-3.1533z" stroke="currentColor" stroke-linecap="round" stroke-linejoin="round" stroke-width="1.5"/></svg>