<svg fill="none" viewBox="0 0 24 24" xmlns="http://www.w3.org/2000/svg"><path d="m17.7499 19.25h2.596c1.1629 0 2.1063-1.0011 1.7877-2.1195-.733-2.5735-2.4648-4.3805-5.1337-4.3805-.4461 0-.866.0505-1.2594.1466m-4.4907-5.8966c0 1.79493-1.45508 3.25-3.25 3.25-1.79493 0-3.25-1.45507-3.25-3.25s1.45507-3.25 3.25-3.25c1.79492 0 3.25 1.45507 3.25 3.25zm8.5.5c0 1.51878-1.2312 2.75-2.75 2.75s-2.75-1.23122-2.75-2.75 1.2312-2.75 2.75-2.75 2.75 1.23122 2.75 2.75zm-17.66874 10.626c.77862-3.1393 2.77759-5.376 5.91874-5.376 3.1411 0 5.1401 2.2367 5.9187 5.376.2798 1.1279-.6583 2.124-1.8203 2.124h-8.19683c-1.16201 0-2.10003-.9961-1.82031-2.124z" stroke="currentColor" stroke-linecap="round" stroke-linejoin="round" stroke-width="1.5"/></svg>